<?xml version="1.0" encoding="UTF-8" standalone="no"?>
<svg width="417px" height="317px" viewBox="0 0 417 317" version="1.1" xmlns="http://www.w3.org/2000/svg" xmlns:xlink="http://www.w3.org/1999/xlink" xmlns:sketch="http://www.bohemiancoding.com/sketch/ns">
    <!-- Generator: Sketch 3.3.2 (12043) - http://www.bohemiancoding.com/sketch -->
    <title>Imported Layers</title>
    <desc>Created with Sketch.</desc>
    <defs></defs>
    <g id="Page-1" stroke="none" stroke-width="1" fill="none" fill-rule="evenodd" sketch:type="MSPage">
        <g id="Imported-Layers" sketch:type="MSLayerGroup" fill="#FFFFFF">
            <path d="M79,101 L50.8131393,101 L51.0475276,88.1771195 L32.6692569,88.1771195 L28.1846284,101 L0,101 L42.0671094,0 L75.4216728,0 L79,101 L79,101 Z M51.5899689,66.9232453 L51.9002543,55.1497734 C51.864538,55.1051177 51.8801639,54.5111971 51.9493642,53.3791754 C52.0297259,52.4235437 52.2417915,48.6300431 52.5810964,42.0009064 C52.6257417,41.2551564 52.6949421,40.2437051 52.7909296,38.9576213 C52.8869172,37.6693047 53.0007629,36.0438377 53.12577,34.0856859 L53.9606386,24.5338344 C53.7128567,25.4470432 53.4115004,26.4763568 53.0588019,27.6106113 C52.7061034,28.7426329 52.3243854,29.9862938 51.9114157,31.3348955 C51.1301215,34.0410302 50.5809833,35.916569 50.2662334,36.9637449 C49.9492512,38.0064552 49.7505793,38.6427987 49.6679853,38.857146 L45.6164171,51.0928042 L40.0803899,66.9232453 L51.5899689,66.9232453 L51.5899689,66.9232453 Z" id="Fill-1" sketch:type="MSShapeGroup"></path>
            <path d="M114.677336,101 L87.4972729,101 L100.988302,24.2078479 L86,24.2078479 L90.251543,0 L148,0 L143.746232,24.2078479 L128.168365,24.2078479 L114.677336,101" id="Fill-2" sketch:type="MSShapeGroup"></path>
            <path d="M177.677503,101 L150.49939,101 L163.991676,24.2078479 L149,24.2078479 L153.255687,0 L211,0 L206.744313,24.2078479 L191.167564,24.2078479 L177.677503,101" id="Fill-3" sketch:type="MSShapeGroup"></path>
            <path d="M265,101 L236.813936,101 L237.043853,88.1771195 L218.668334,88.1771195 L214.186064,101 L186,101 L228.068153,0 L261.419542,0 L265,101 L265,101 Z M237.590743,66.9232453 L237.898788,55.1497734 C237.865305,55.1051177 237.876466,54.5111971 237.947896,53.3791754 C238.030488,52.4235437 238.240315,48.6300431 238.579611,42.0009064 C238.622023,41.2551564 238.693453,40.2437051 238.789438,38.9576213 C238.885423,37.6693047 238.997033,36.0438377 239.124269,34.0856859 L239.961346,24.5338344 C239.713571,25.4470432 239.412223,26.4763568 239.059535,27.6106113 C238.706846,28.7426329 238.322907,29.9862938 237.912181,31.3348955 C237.126445,34.0410302 236.577322,35.916569 236.264813,36.9637449 C235.950072,38.0064552 235.749174,38.6427987 235.666582,38.857146 L231.61736,51.0928042 L226.079257,66.9232453 L237.590743,66.9232453 L237.590743,66.9232453 Z" id="Fill-4" sketch:type="MSShapeGroup"></path>
            <path d="M327.202914,70.2545595 L320.805965,97.6284956 C314.346475,99.8791423 308.713408,101 303.915696,101 C292.616056,101 283.81355,97.0010832 277.505944,88.9987841 C270.445623,80.0319222 268.366168,67.3385432 271.267578,50.9141815 C273.9769,35.5414613 280.210799,23.2053277 289.964807,13.8990826 C299.714347,4.63526031 311.371358,0 324.938073,0 C329.34491,0 333.698141,0.797104012 338,2.38684647 L333.074974,30.2921853 C329.731317,26.2329833 325.923078,24.2078479 321.648021,24.2078479 C316.064092,24.2078479 311.288716,26.5634354 307.317425,31.2768432 C303.334967,36.030441 300.607776,42.6015254 299.124684,50.9878634 C298.409941,55.0537637 298.162015,58.6865038 298.383138,61.8816182 C298.606496,65.083431 299.251998,67.7828672 300.324112,69.9888582 C301.393993,72.1948491 302.89942,73.8783685 304.83146,75.0483475 C306.759032,76.2160937 309.102049,76.8010832 311.851576,76.8010832 C316.562179,76.8010832 321.679291,74.6151874 327.202914,70.2545595" id="Fill-5" sketch:type="MSShapeGroup"></path>
            <path d="M401.913556,101 L372.55567,101 L362.67544,54.4241185 L355.202362,101 L328,101 L345.760809,0 L372.965397,0 L364.632781,43.309318 L388.296787,0 L417,0 L386.709092,48.7327512 L401.913556,101" id="Fill-6" sketch:type="MSShapeGroup"></path>
            <path d="M231.676307,209 L204.497219,209 L217.989989,132.203382 L203,132.203382 L207.253615,108 L265,108 L260.746385,132.203382 L245.169077,132.203382 L231.676307,209" id="Fill-7" sketch:type="MSShapeGroup"></path>
            <path d="M320.268698,209 L293.112709,209 L300.24124,168.381187 L287.282296,168.381187 L280.153766,209 L253,209 L270.729079,108 L297.885068,108 L291.534519,144.173339 L304.493462,144.173339 L310.844012,108 L338,108 L320.268698,209" id="Fill-8" sketch:type="MSShapeGroup"></path>
            <path d="M328,209 L345.937616,108 L397,108 L392.70001,132.203382 L369.113034,132.203382 L366.823604,145.088781 L387.974968,145.088781 L383.674978,169.292163 L362.523614,169.292163 L359.770901,184.796618 L383.357876,184.796618 L379.062384,209 L328,209" id="Fill-9" sketch:type="MSShapeGroup"></path>
            <path d="M116.470967,317 L89,317 L106.936185,216 L133.552619,216 C146.815861,216 156.179736,218.681633 161.639748,224.047133 C168.06898,230.370518 170.288515,239.156718 168.289359,250.407967 C166.110302,262.661759 160.470388,271.798514 151.36737,277.818234 C145.156269,281.87306 136.91228,283.900473 126.635404,283.900473 L122.351499,283.900473 L116.470967,317 L116.470967,317 Z M126.124934,262.641663 L127.368503,262.706416 C130.705677,262.706416 133.543624,261.694942 135.880095,259.667529 C138.216567,257.637883 139.696257,254.855772 140.323663,251.323429 C140.944324,247.835743 140.478829,245.000044 138.936173,242.820799 C137.400263,240.596896 135.133504,239.484945 132.147138,239.484945 L130.235684,239.484945 L126.124934,262.641663 L126.124934,262.641663 Z" id="Fill-10" sketch:type="MSShapeGroup"></path>
            <path d="M227,317 L198.813139,317 L199.045295,304.179069 L180.667025,304.179069 L176.186861,317 L148,317 L190.067109,216 L223.421673,216 L227,317 L227,317 Z M199.589969,282.920259 L199.900254,271.144294 C199.864538,271.106336 199.877932,270.512402 199.947132,269.378123 C200.029726,268.424703 200.239559,264.62442 200.578864,257.997369 C200.623509,257.256068 200.69271,256.242362 200.788697,254.95625 C200.884685,253.670138 200.998531,252.044635 201.12577,250.081974 L201.962871,240.529911 C201.712857,241.447606 201.4115,242.470244 201.058802,243.604523 C200.706103,244.738803 200.322153,245.982491 199.913648,247.333355 C199.127889,250.041783 198.578751,251.912897 198.264001,252.960096 C197.951483,254.007295 197.750579,254.639187 197.667985,254.855772 L193.616417,267.089468 L188.08039,282.920259 L199.589969,282.920259 L199.589969,282.920259 Z" id="Fill-11" sketch:type="MSShapeGroup"></path>
            <path d="M289.202539,286.256113 L282.807601,313.630654 C276.345653,315.88135 270.714623,317 265.914511,317 C254.616713,317 245.811667,313.000995 239.503841,304.998519 C232.445509,296.029226 230.368215,283.333333 233.265258,266.910841 C235.974675,251.542247 242.20879,239.205841 251.963137,229.89939 C261.713016,220.635363 273.370432,216 286.937619,216 C291.344609,216 295.697991,216.792656 300,218.384666 L295.074803,246.286156 C291.733264,242.23133 287.924892,240.203917 283.649687,240.203917 C278.065563,240.203917 273.287787,242.564023 269.318593,247.273069 C265.335996,252.031238 262.60871,258.598002 261.125567,266.988991 C260.408565,271.052748 260.16063,274.681103 260.383995,277.882986 C260.605126,281.082637 261.250651,283.782133 262.325036,285.990405 C263.397188,288.196445 264.8982,289.880002 266.830307,291.045541 C268.76018,292.213313 271.103278,292.798315 273.850667,292.798315 C278.561434,292.798315 283.678724,290.616837 289.202539,286.256113" id="Fill-12" sketch:type="MSShapeGroup"></path>
            <path d="M362.911707,317 L333.556782,317 L323.674573,270.425322 L316.203908,317 L289,317 L306.760364,216 L333.964272,216 L325.631865,259.30581 L349.295279,216 L378,216 L347.707623,264.733829 L362.911707,317" id="Fill-13" sketch:type="MSShapeGroup"></path>
        </g>
    </g>
</svg>
