<?xml version="1.0" encoding="UTF-8" standalone="no"?>
<svg width="80px" height="101px" viewBox="0 0 80 101" version="1.1" xmlns="http://www.w3.org/2000/svg" xmlns:xlink="http://www.w3.org/1999/xlink" xmlns:sketch="http://www.bohemiancoding.com/sketch/ns">
    <!-- Generator: Sketch 3.3.3 (12072) - http://www.bohemiancoding.com/sketch -->
    <title>Fill-10</title>
    <desc>Created with Sketch.</desc>
    <defs></defs>
    <g id="Page-1" stroke="none" stroke-width="1" fill="none" fill-rule="evenodd" sketch:type="MSPage">
        <g id="atp-logo" sketch:type="MSLayerGroup" transform="translate(-89.000000, -216.000000)" fill="#000000">
            <g id="Page-1" sketch:type="MSShapeGroup">
                <g id="Imported-Layers">
                    <path d="M116.470967,317 L89,317 L106.936185,216 L133.552619,216 C146.815861,216 156.179736,218.681633 161.639748,224.047133 C168.06898,230.370518 170.288515,239.156718 168.289359,250.407967 C166.110302,262.661759 160.470388,271.798514 151.36737,277.818234 C145.156269,281.87306 136.91228,283.900473 126.635404,283.900473 L122.351499,283.900473 L116.470967,317 L116.470967,317 Z M126.124934,262.641663 L127.368503,262.706416 C130.705677,262.706416 133.543624,261.694942 135.880095,259.667529 C138.216567,257.637883 139.696257,254.855772 140.323663,251.323429 C140.944324,247.835743 140.478829,245.000044 138.936173,242.820799 C137.400263,240.596896 135.133504,239.484945 132.147138,239.484945 L130.235684,239.484945 L126.124934,262.641663 L126.124934,262.641663 Z" id="Fill-10"></path>
                </g>
            </g>
        </g>
    </g>
</svg>