<?xml version="1.0" encoding="UTF-8" standalone="no"?>
<svg width="79px" height="101px" viewBox="0 0 79 101" version="1.1" xmlns="http://www.w3.org/2000/svg" xmlns:xlink="http://www.w3.org/1999/xlink" xmlns:sketch="http://www.bohemiancoding.com/sketch/ns">
    <!-- Generator: Sketch 3.3.3 (12072) - http://www.bohemiancoding.com/sketch -->
    <title>Fill-1</title>
    <desc>Created with Sketch.</desc>
    <defs></defs>
    <g id="Page-1" stroke="none" stroke-width="1" fill="none" fill-rule="evenodd" sketch:type="MSPage">
        <g id="atp-logo" sketch:type="MSLayerGroup" fill="#000000">
            <g id="Page-1" sketch:type="MSShapeGroup">
                <g id="Imported-Layers">
                    <path d="M79,101 L50.8131393,101 L51.0475276,88.1771195 L32.6692569,88.1771195 L28.1846284,101 L0,101 L42.0671094,0 L75.4216728,0 L79,101 L79,101 Z M51.5899689,66.9232453 L51.9002543,55.1497734 C51.864538,55.1051177 51.8801639,54.5111971 51.9493642,53.3791754 C52.0297259,52.4235437 52.2417915,48.6300431 52.5810964,42.0009064 C52.6257417,41.2551564 52.6949421,40.2437051 52.7909296,38.9576213 C52.8869172,37.6693047 53.0007629,36.0438377 53.12577,34.0856859 L53.9606386,24.5338344 C53.7128567,25.4470432 53.4115004,26.4763568 53.0588019,27.6106113 C52.7061034,28.7426329 52.3243854,29.9862938 51.9114157,31.3348955 C51.1301215,34.0410302 50.5809833,35.916569 50.2662334,36.9637449 C49.9492512,38.0064552 49.7505793,38.6427987 49.6679853,38.857146 L45.6164171,51.0928042 L40.0803899,66.9232453 L51.5899689,66.9232453 L51.5899689,66.9232453 Z" id="Fill-1"></path>
                </g>
            </g>
        </g>
    </g>
</svg>