<?xml version="1.0" encoding="UTF-8" standalone="no"?>
<svg width="68px" height="101px" viewBox="0 0 68 101" version="1.1" xmlns="http://www.w3.org/2000/svg" xmlns:xlink="http://www.w3.org/1999/xlink" xmlns:sketch="http://www.bohemiancoding.com/sketch/ns">
    <!-- Generator: Sketch 3.3.3 (12072) - http://www.bohemiancoding.com/sketch -->
    <title>Fill-5</title>
    <desc>Created with Sketch.</desc>
    <defs></defs>
    <g id="Page-1" stroke="none" stroke-width="1" fill="none" fill-rule="evenodd" sketch:type="MSPage">
        <g id="atp-logo" sketch:type="MSLayerGroup" transform="translate(-270.000000, 0.000000)" fill="#000000">
            <g id="Page-1" sketch:type="MSShapeGroup">
                <g id="Imported-Layers">
                    <path d="M327.202914,70.2545595 L320.805965,97.6284956 C314.346475,99.8791423 308.713408,101 303.915696,101 C292.616056,101 283.81355,97.0010832 277.505944,88.9987841 C270.445623,80.0319222 268.366168,67.3385432 271.267578,50.9141815 C273.9769,35.5414613 280.210799,23.2053277 289.964807,13.8990826 C299.714347,4.63526031 311.371358,0 324.938073,0 C329.34491,0 333.698141,0.797104012 338,2.38684647 L333.074974,30.2921853 C329.731317,26.2329833 325.923078,24.2078479 321.648021,24.2078479 C316.064092,24.2078479 311.288716,26.5634354 307.317425,31.2768432 C303.334967,36.030441 300.607776,42.6015254 299.124684,50.9878634 C298.409941,55.0537637 298.162015,58.6865038 298.383138,61.8816182 C298.606496,65.083431 299.251998,67.7828672 300.324112,69.9888582 C301.393993,72.1948491 302.89942,73.8783685 304.83146,75.0483475 C306.759032,76.2160937 309.102049,76.8010832 311.851576,76.8010832 C316.562179,76.8010832 321.679291,74.6151874 327.202914,70.2545595" id="Fill-5"></path>
                </g>
            </g>
        </g>
    </g>
</svg>