<?xml version="1.0" encoding="UTF-8" standalone="no"?>
<svg width="79px" height="101px" viewBox="0 0 79 101" version="1.1" xmlns="http://www.w3.org/2000/svg" xmlns:xlink="http://www.w3.org/1999/xlink" xmlns:sketch="http://www.bohemiancoding.com/sketch/ns">
    <!-- Generator: Sketch 3.3.3 (12072) - http://www.bohemiancoding.com/sketch -->
    <title>Fill-11</title>
    <desc>Created with Sketch.</desc>
    <defs></defs>
    <g id="Page-1" stroke="none" stroke-width="1" fill="none" fill-rule="evenodd" sketch:type="MSPage">
        <g id="atp-logo" sketch:type="MSLayerGroup" transform="translate(-148.000000, -216.000000)" fill="#000000">
            <g id="Page-1" sketch:type="MSShapeGroup">
                <g id="Imported-Layers">
                    <path d="M227,317 L198.813139,317 L199.045295,304.179069 L180.667025,304.179069 L176.186861,317 L148,317 L190.067109,216 L223.421673,216 L227,317 L227,317 Z M199.589969,282.920259 L199.900254,271.144294 C199.864538,271.106336 199.877932,270.512402 199.947132,269.378123 C200.029726,268.424703 200.239559,264.62442 200.578864,257.997369 C200.623509,257.256068 200.69271,256.242362 200.788697,254.95625 C200.884685,253.670138 200.998531,252.044635 201.12577,250.081974 L201.962871,240.529911 C201.712857,241.447606 201.4115,242.470244 201.058802,243.604523 C200.706103,244.738803 200.322153,245.982491 199.913648,247.333355 C199.127889,250.041783 198.578751,251.912897 198.264001,252.960096 C197.951483,254.007295 197.750579,254.639187 197.667985,254.855772 L193.616417,267.089468 L188.08039,282.920259 L199.589969,282.920259 L199.589969,282.920259 Z" id="Fill-11"></path>
                </g>
            </g>
        </g>
    </g>
</svg>