<?xml version="1.0" encoding="UTF-8" standalone="no"?>
<svg width="79px" height="101px" viewBox="0 0 79 101" version="1.1" xmlns="http://www.w3.org/2000/svg" xmlns:xlink="http://www.w3.org/1999/xlink" xmlns:sketch="http://www.bohemiancoding.com/sketch/ns">
    <!-- Generator: Sketch 3.3.3 (12072) - http://www.bohemiancoding.com/sketch -->
    <title>Fill-4</title>
    <desc>Created with Sketch.</desc>
    <defs></defs>
    <g id="Page-1" stroke="none" stroke-width="1" fill="none" fill-rule="evenodd" sketch:type="MSPage">
        <g id="atp-logo" sketch:type="MSLayerGroup" transform="translate(-186.000000, 0.000000)" fill="#000000">
            <g id="Page-1" sketch:type="MSShapeGroup">
                <g id="Imported-Layers">
                    <path d="M265,101 L236.813936,101 L237.043853,88.1771195 L218.668334,88.1771195 L214.186064,101 L186,101 L228.068153,0 L261.419542,0 L265,101 L265,101 Z M237.590743,66.9232453 L237.898788,55.1497734 C237.865305,55.1051177 237.876466,54.5111971 237.947896,53.3791754 C238.030488,52.4235437 238.240315,48.6300431 238.579611,42.0009064 C238.622023,41.2551564 238.693453,40.2437051 238.789438,38.9576213 C238.885423,37.6693047 238.997033,36.0438377 239.124269,34.0856859 L239.961346,24.5338344 C239.713571,25.4470432 239.412223,26.4763568 239.059535,27.6106113 C238.706846,28.7426329 238.322907,29.9862938 237.912181,31.3348955 C237.126445,34.0410302 236.577322,35.916569 236.264813,36.9637449 C235.950072,38.0064552 235.749174,38.6427987 235.666582,38.857146 L231.61736,51.0928042 L226.079257,66.9232453 L237.590743,66.9232453 L237.590743,66.9232453 Z" id="Fill-4"></path>
                </g>
            </g>
        </g>
    </g>
</svg>