<?xml version="1.0" encoding="UTF-8" standalone="no"?>
<svg width="68px" height="101px" viewBox="0 0 68 101" version="1.1" xmlns="http://www.w3.org/2000/svg" xmlns:xlink="http://www.w3.org/1999/xlink" xmlns:sketch="http://www.bohemiancoding.com/sketch/ns">
    <!-- Generator: Sketch 3.3.3 (12072) - http://www.bohemiancoding.com/sketch -->
    <title>Fill-12</title>
    <desc>Created with Sketch.</desc>
    <defs></defs>
    <g id="Page-1" stroke="none" stroke-width="1" fill="none" fill-rule="evenodd" sketch:type="MSPage">
        <g id="atp-logo" sketch:type="MSLayerGroup" transform="translate(-232.000000, -216.000000)" fill="#000000">
            <g id="Page-1" sketch:type="MSShapeGroup">
                <g id="Imported-Layers">
                    <path d="M289.202539,286.256113 L282.807601,313.630654 C276.345653,315.88135 270.714623,317 265.914511,317 C254.616713,317 245.811667,313.000995 239.503841,304.998519 C232.445509,296.029226 230.368215,283.333333 233.265258,266.910841 C235.974675,251.542247 242.20879,239.205841 251.963137,229.89939 C261.713016,220.635363 273.370432,216 286.937619,216 C291.344609,216 295.697991,216.792656 300,218.384666 L295.074803,246.286156 C291.733264,242.23133 287.924892,240.203917 283.649687,240.203917 C278.065563,240.203917 273.287787,242.564023 269.318593,247.273069 C265.335996,252.031238 262.60871,258.598002 261.125567,266.988991 C260.408565,271.052748 260.16063,274.681103 260.383995,277.882986 C260.605126,281.082637 261.250651,283.782133 262.325036,285.990405 C263.397188,288.196445 264.8982,289.880002 266.830307,291.045541 C268.76018,292.213313 271.103278,292.798315 273.850667,292.798315 C278.561434,292.798315 283.678724,290.616837 289.202539,286.256113" id="Fill-12"></path>
                </g>
            </g>
        </g>
    </g>
</svg>